<svg width="60" height="60" viewBox="0 0 60 60" fill="none" xmlns="http://www.w3.org/2000/svg">
<path d="M28.938 6.438C29.0773 6.29831 29.2429 6.18748 29.4251 6.11186C29.6073 6.03624 29.8027 5.99731 30 5.99731C30.1973 5.99731 30.3927 6.03624 30.5749 6.11186C30.7571 6.18748 30.9227 6.29831 31.062 6.438L37.062 12.438C37.3437 12.7197 37.5019 13.1017 37.5019 13.5C37.5019 13.8983 37.3437 14.2803 37.062 14.562C36.7803 14.8437 36.3983 15.0019 36 15.0019C35.6017 15.0019 35.2197 14.8437 34.938 14.562L31.5 11.121V19.5C31.5 19.8978 31.342 20.2794 31.0607 20.5607C30.7794 20.842 30.3978 21 30 21C29.6022 21 29.2206 20.842 28.9393 20.5607C28.658 20.2794 28.5 19.8978 28.5 19.5V11.121L25.062 14.562C24.9225 14.7015 24.757 14.8121 24.5747 14.8876C24.3925 14.963 24.1972 15.0019 24 15.0019C23.8028 15.0019 23.6075 14.963 23.4252 14.8876C23.243 14.8121 23.0775 14.7015 22.938 14.562C22.7985 14.4225 22.6879 14.257 22.6124 14.0747C22.5369 13.8925 22.4981 13.6972 22.4981 13.5C22.4981 13.3028 22.5369 13.1075 22.6124 12.9252C22.6879 12.743 22.7985 12.5775 22.938 12.438L28.938 6.438ZM30 36C31.5913 36 33.1174 35.3679 34.2426 34.2426C35.3679 33.1174 36 31.5913 36 30C36 28.4087 35.3679 26.8826 34.2426 25.7574C33.1174 24.6321 31.5913 24 30 24C28.4087 24 26.8826 24.6321 25.7574 25.7574C24.6321 26.8826 24 28.4087 24 30C24 31.5913 24.6321 33.1174 25.7574 34.2426C26.8826 35.3679 28.4087 36 30 36ZM30 33C29.2043 33 28.4413 32.6839 27.8787 32.1213C27.3161 31.5587 27 30.7956 27 30C27 29.2043 27.3161 28.4413 27.8787 27.8787C28.4413 27.3161 29.2043 27 30 27C30.7956 27 31.5587 27.3161 32.1213 27.8787C32.6839 28.4413 33 29.2043 33 30C33 30.7956 32.6839 31.5587 32.1213 32.1213C31.5587 32.6839 30.7956 33 30 33ZM47.562 37.062L53.562 31.062C53.7017 30.9227 53.8125 30.7571 53.8881 30.5749C53.9638 30.3927 54.0027 30.1973 54.0027 30C54.0027 29.8027 53.9638 29.6073 53.8881 29.4251C53.8125 29.2429 53.7017 29.0773 53.562 28.938L47.562 22.938C47.2803 22.6563 46.8983 22.4981 46.5 22.4981C46.1017 22.4981 45.7197 22.6563 45.438 22.938C45.1563 23.2197 44.9981 23.6017 44.9981 24C44.9981 24.3983 45.1563 24.7803 45.438 25.062L48.879 28.5H40.5C40.1022 28.5 39.7206 28.658 39.4393 28.9393C39.158 29.2206 39 29.6022 39 30C39 30.3978 39.158 30.7794 39.4393 31.0607C39.7206 31.342 40.1022 31.5 40.5 31.5H48.879L45.438 34.938C45.1563 35.2197 44.9981 35.6017 44.9981 36C44.9981 36.3983 45.1563 36.7803 45.438 37.062C45.7197 37.3437 46.1017 37.5019 46.5 37.5019C46.8983 37.5019 47.2803 37.3437 47.562 37.062ZM31.062 53.562L37.062 47.562C37.3437 47.2803 37.5019 46.8983 37.5019 46.5C37.5019 46.1017 37.3437 45.7197 37.062 45.438C36.7803 45.1563 36.3983 44.9981 36 44.9981C35.6017 44.9981 35.2197 45.1563 34.938 45.438L31.5 48.879V40.5C31.5 40.1022 31.342 39.7206 31.0607 39.4393C30.7794 39.158 30.3978 39 30 39C29.6022 39 29.2206 39.158 28.9393 39.4393C28.658 39.7206 28.5 40.1022 28.5 40.5V48.879L25.062 45.438C24.7803 45.1563 24.3983 44.9981 24 44.9981C23.6017 44.9981 23.2197 45.1563 22.938 45.438C22.6563 45.7197 22.4981 46.1017 22.4981 46.5C22.4981 46.8983 22.6563 47.2803 22.938 47.562L28.938 53.562C29.0773 53.7017 29.2429 53.8125 29.4251 53.8881C29.6073 53.9638 29.8027 54.0027 30 54.0027C30.1973 54.0027 30.3927 53.9638 30.5749 53.8881C30.7571 53.8125 30.9227 53.7017 31.062 53.562ZM6.438 31.062C6.29831 30.9227 6.18748 30.7571 6.11186 30.5749C6.03624 30.3927 5.99731 30.1973 5.99731 30C5.99731 29.8027 6.03624 29.6073 6.11186 29.4251C6.18748 29.2429 6.29831 29.0773 6.438 28.938L12.438 22.938C12.5775 22.7985 12.743 22.6879 12.9252 22.6124C13.1075 22.5369 13.3028 22.4981 13.5 22.4981C13.6972 22.4981 13.8925 22.5369 14.0747 22.6124C14.257 22.6879 14.4225 22.7985 14.562 22.938C14.7015 23.0775 14.8121 23.243 14.8876 23.4252C14.963 23.6075 15.0019 23.8028 15.0019 24C15.0019 24.1972 14.963 24.3925 14.8876 24.5747C14.8121 24.757 14.7015 24.9225 14.562 25.062L11.121 28.5H19.5C19.8978 28.5 20.2794 28.658 20.5607 28.9393C20.842 29.2206 21 29.6022 21 30C21 30.3978 20.842 30.7794 20.5607 31.0607C20.2794 31.342 19.8978 31.5 19.5 31.5H11.121L14.562 34.938C14.8437 35.2197 15.0019 35.6017 15.0019 36C15.0019 36.3983 14.8437 36.7803 14.562 37.062C14.2803 37.3437 13.8983 37.5019 13.5 37.5019C13.1017 37.5019 12.7197 37.3437 12.438 37.062L6.438 31.062Z" fill="#D165CE"/>
</svg>
